<?xml version="1.0" encoding="UTF-8"?>
<svg xmlns="http://www.w3.org/2000/svg" viewBox="0 0 1920 1080">
  <defs>
    <linearGradient id="g" x1="0" y1="0" x2="0" y2="1">
      <stop offset="0%" stop-color="#e8f5e9"/>
      <stop offset="100%" stop-color="#f1f8e9"/>
    </linearGradient>
    <linearGradient id="fade" x1="0" y1="0" x2="0" y2="1">
      <stop offset="0" stop-color="#000" stop-opacity="0.05"/>
      <stop offset="1" stop-color="#000" stop-opacity="0.10"/>
    </linearGradient>
  </defs>
  <rect width="100%" height="100%" fill="url(#g)"/>

  <!-- Subtle diagonal lines -->
  <g opacity="0.04" stroke="#2e7d32" stroke-width="2">
    <path d="M-200 980 L 1000 -220"/>
    <path d="M-80 1080 L 1120 -120"/>
    <path d="M40 1180 L 1240 -20"/>
    <path d="M160 1280 L 1360 80"/>
  </g>

  <!-- Bank icon watermark -->
  <g transform="translate(1460,160) scale(2.2)" opacity="0.08" fill="#2e7d32">
    <polygon points="100,0 0,40 200,40"/>
    <rect x="20" y="40" width="20" height="120" rx="6"/>
    <rect x="60" y="40" width="20" height="120" rx="6"/>
    <rect x="100" y="40" width="20" height="120" rx="6"/>
    <rect x="140" y="40" width="20" height="120" rx="6"/>
    <rect x="0" y="160" width="200" height="16" rx="8"/>
    <rect x="-14" y="176" width="228" height="18" rx="9"/>
  </g>

  <!-- Bottom gradient vignette for readability -->
  <rect width="100%" height="100%" fill="url(#fade)"/>
</svg>

